HIERARCHY
ROOT Hips
{
  OFFSET -0.0702116 97.7615 1.17104
  CHANNELS 6 Xposition Yposition Zposition Zrotation Xrotation Yrotation
  JOINT Spine
  {
    OFFSET 0 10.1816 0.1315
    CHANNELS 6 Xposition Yposition Zposition Zrotation Xrotation Yrotation
    JOINT Spine1
    {
      OFFSET 0 10.0835 -1.0008
      CHANNELS 6 Xposition Yposition Zposition Zrotation Xrotation Yrotation
      JOINT Spine2
      {
        OFFSET 0 9.1 -1.3734
        CHANNELS 6 Xposition Yposition Zposition Zrotation Xrotation Yrotation
        JOINT Neck
        {
          OFFSET 0 16.6717 -2.5162
          CHANNELS 6 Xposition Yposition Zposition Zrotation Xrotation Yrotation
          JOINT Head
          {
            OFFSET 0 9.6179 1.685
            CHANNELS 6 Xposition Yposition Zposition Zrotation Xrotation Yrotation
            JOINT HeadTop_End
            {
              OFFSET 0 17.8152 2.585
              CHANNELS 6 Xposition Yposition Zposition Zrotation Xrotation Yrotation
              End Site
              {
                OFFSET 0 0 0
              }
            }
            JOINT LeftEye
            {
              OFFSET 3.0676 6.4095 9.2836
              CHANNELS 6 Xposition Yposition Zposition Zrotation Xrotation Yrotation
              End Site
              {
                OFFSET 0 0 0
              }
            }
            JOINT RightEye
            {
              OFFSET -3.0676 6.4095 9.2835
              CHANNELS 6 Xposition Yposition Zposition Zrotation Xrotation Yrotation
              End Site
              {
                OFFSET 0 0 0
              }
            }
          }
        }
        JOINT LeftShoulder
        {
          OFFSET 4.5704 10.946 -2.628
          CHANNELS 6 Xposition Yposition Zposition Zrotation Xrotation Yrotation
          JOINT LeftArm
          {
            OFFSET 10.5924 -0.5246 -2.2321
            CHANNELS 6 Xposition Yposition Zposition Zrotation Xrotation Yrotation
            JOINT LeftForeArm
            {
              OFFSET 27.8415 -0.0001 0
              CHANNELS 6 Xposition Yposition Zposition Zrotation Xrotation Yrotation
              JOINT LeftHand
              {
                OFFSET 28.3288 0 0
                CHANNELS 6 Xposition Yposition Zposition Zrotation Xrotation Yrotation
                JOINT LeftHandThumb1
                {
                  OFFSET 2.4661 -1.575 2.6824
                  CHANNELS 6 Xposition Yposition Zposition Zrotation Xrotation Yrotation
                  JOINT LeftHandThumb2
                  {
                    OFFSET 3.2298 -1.8647 1.8647
                    CHANNELS 6 Xposition Yposition Zposition Zrotation Xrotation Yrotation
                    JOINT LeftHandThumb3
                    {
                      OFFSET 2.6526 -1.5315 1.5315
                      CHANNELS 6 Xposition Yposition Zposition Zrotation Xrotation Yrotation
                      End Site
                      {
                        OFFSET 1.9546 -1.1285 1.1285
                      }
                    }
                  }
                }
                JOINT LeftHandIndex1
                {
                  OFFSET 9.1093 -0.5171 2.2601
                  CHANNELS 6 Xposition Yposition Zposition Zrotation Xrotation Yrotation
                  JOINT LeftHandIndex2
                  {
                    OFFSET 3.6764 0 0
                    CHANNELS 6 Xposition Yposition Zposition Zrotation Xrotation Yrotation
                    JOINT LeftHandIndex3
                    {
                      OFFSET 2.8831 0 0
                      CHANNELS 6 Xposition Yposition Zposition Zrotation Xrotation Yrotation
                      End Site
                      {
                        OFFSET 2.3927 0 0
                      }
                    }
                  }
                }
                JOINT LeftHandMiddle1
                {
                  OFFSET 9.5334 0 0
                  CHANNELS 6 Xposition Yposition Zposition Zrotation Xrotation Yrotation
                  JOINT LeftHandMiddle2
                  {
                    OFFSET 3.6982 0 0
                    CHANNELS 6 Xposition Yposition Zposition Zrotation Xrotation Yrotation
                    JOINT LeftHandMiddle3
                    {
                      OFFSET 2.9509 0 0
                      CHANNELS 6 Xposition Yposition Zposition Zrotation Xrotation Yrotation
                      End Site
                      {
                        OFFSET 2.8339 0 0
                      }
                    }
                  }
                }
                JOINT LeftHandRing1
                {
                  OFFSET 9.1045 -0.0439 -1.8651
                  CHANNELS 6 Xposition Yposition Zposition Zrotation Xrotation Yrotation
                  JOINT LeftHandRing2
                  {
                    OFFSET 3.154 0 0
                    CHANNELS 6 Xposition Yposition Zposition Zrotation Xrotation Yrotation
                    JOINT LeftHandRing3
                    {
                      OFFSET 2.9377 0 0
                      CHANNELS 6 Xposition Yposition Zposition Zrotation Xrotation Yrotation
                      End Site
                      {
                        OFFSET 2.6475 0 0
                      }
                    }
                  }
                }
                JOINT LeftHandPinky1
                {
                  OFFSET 8.0778 -0.4887 -3.8061
                  CHANNELS 6 Xposition Yposition Zposition Zrotation Xrotation Yrotation
                  JOINT LeftHandPinky2
                  {
                    OFFSET 3.6 0 0
                    CHANNELS 6 Xposition Yposition Zposition Zrotation Xrotation Yrotation
                    JOINT LeftHandPinky3
                    {
                      OFFSET 2.1142 0 0
                      CHANNELS 6 Xposition Yposition Zposition Zrotation Xrotation Yrotation
                      End Site
                      {
                        OFFSET 1.9757 0 0
                      }
                    }
                  }
                }
              }
            }
          }
        }
        JOINT RightShoulder
        {
          OFFSET -4.57 10.9462 -2.628
          CHANNELS 6 Xposition Yposition Zposition Zrotation Xrotation Yrotation
          JOINT RightArm
          {
            OFFSET -10.5928 -0.5248 -2.2321
            CHANNELS 6 Xposition Yposition Zposition Zrotation Xrotation Yrotation
            JOINT RightForeArm
            {
              OFFSET -27.8415 0 0
              CHANNELS 6 Xposition Yposition Zposition Zrotation Xrotation Yrotation
              JOINT RightHand
              {
                OFFSET -28.3288 0 0.0001
                CHANNELS 6 Xposition Yposition Zposition Zrotation Xrotation Yrotation
                JOINT RightHandPinky1
                {
                  OFFSET -8.0767 -0.4885 -3.806
                  CHANNELS 6 Xposition Yposition Zposition Zrotation Xrotation Yrotation
                  JOINT RightHandPinky2
                  {
                    OFFSET -3.6 0 0.0001
                    CHANNELS 6 Xposition Yposition Zposition Zrotation Xrotation Yrotation
                    JOINT RightHandPinky3
                    {
                      OFFSET -2.1142 0 0
                      CHANNELS 6 Xposition Yposition Zposition Zrotation Xrotation Yrotation
                      End Site
                      {
                        OFFSET -1.9757 0 0
                      }
                    }
                  }
                }
                JOINT RightHandRing1
                {
                  OFFSET -9.1036 -0.0439 -1.8651
                  CHANNELS 6 Xposition Yposition Zposition Zrotation Xrotation Yrotation
                  JOINT RightHandRing2
                  {
                    OFFSET -3.154 0 0
                    CHANNELS 6 Xposition Yposition Zposition Zrotation Xrotation Yrotation
                    JOINT RightHandRing3
                    {
                      OFFSET -2.9377 0 0
                      CHANNELS 6 Xposition Yposition Zposition Zrotation Xrotation Yrotation
                      End Site
                      {
                        OFFSET -2.6475 0 0
                      }
                    }
                  }
                }
                JOINT RightHandMiddle1
                {
                  OFFSET -9.5325 0 0
                  CHANNELS 6 Xposition Yposition Zposition Zrotation Xrotation Yrotation
                  JOINT RightHandMiddle2
                  {
                    OFFSET -3.6982 0 0
                    CHANNELS 6 Xposition Yposition Zposition Zrotation Xrotation Yrotation
                    JOINT RightHandMiddle3
                    {
                      OFFSET -2.9509 0 0
                      CHANNELS 6 Xposition Yposition Zposition Zrotation Xrotation Yrotation
                      End Site
                      {
                        OFFSET -2.8339 0 0.0001
                      }
                    }
                  }
                }
                JOINT RightHandIndex1
                {
                  OFFSET -9.1083 -0.5168 2.2601
                  CHANNELS 6 Xposition Yposition Zposition Zrotation Xrotation Yrotation
                  JOINT RightHandIndex2
                  {
                    OFFSET -3.6764 0 0
                    CHANNELS 6 Xposition Yposition Zposition Zrotation Xrotation Yrotation
                    JOINT RightHandIndex3
                    {
                      OFFSET -2.8831 0 0
                      CHANNELS 6 Xposition Yposition Zposition Zrotation Xrotation Yrotation
                      End Site
                      {
                        OFFSET -2.3927 0 0
                      }
                    }
                  }
                }
                JOINT RightHandThumb1
                {
                  OFFSET -2.4648 -1.5727 2.6826
                  CHANNELS 6 Xposition Yposition Zposition Zrotation Xrotation Yrotation
                  JOINT RightHandThumb2
                  {
                    OFFSET -3.2298 -1.8647 1.8647
                    CHANNELS 6 Xposition Yposition Zposition Zrotation Xrotation Yrotation
                    JOINT RightHandThumb3
                    {
                      OFFSET -2.6526 -1.5314 1.5314
                      CHANNELS 6 Xposition Yposition Zposition Zrotation Xrotation Yrotation
                      End Site
                      {
                        OFFSET -1.9546 -1.1285 1.1285
                      }
                    }
                  }
                }
              }
            }
          }
        }
      }
    }
  }
  JOINT LeftUpLeg
  {
    OFFSET 8.2078 -6.7517 -1.5996
    CHANNELS 6 Xposition Yposition Zposition Zrotation Xrotation Yrotation
    JOINT LeftLeg
    {
      OFFSET 0 -44.3705 0.2846
      CHANNELS 6 Xposition Yposition Zposition Zrotation Xrotation Yrotation
      JOINT LeftFoot
      {
        OFFSET 0 -44.4279 -2.9822
        CHANNELS 6 Xposition Yposition Zposition Zrotation Xrotation Yrotation
        JOINT LeftToeBase
        {
          OFFSET 0 -8.7287 10.7106
          CHANNELS 6 Xposition Yposition Zposition Zrotation Xrotation Yrotation
          End Site
          {
            OFFSET 0 -0.0007 9.2781
          }
        }
      }
    }
  }
  JOINT RightUpLeg
  {
    OFFSET -8.2078 -6.7517 -1.5996
    CHANNELS 6 Xposition Yposition Zposition Zrotation Xrotation Yrotation
    JOINT RightLeg
    {
      OFFSET 0 -44.3705 0.2862
      CHANNELS 6 Xposition Yposition Zposition Zrotation Xrotation Yrotation
      JOINT RightFoot
      {
        OFFSET 0 -44.4277 -2.9838
        CHANNELS 6 Xposition Yposition Zposition Zrotation Xrotation Yrotation
        JOINT RightToeBase
        {
          OFFSET 0 -8.7287 10.7106
          CHANNELS 6 Xposition Yposition Zposition Zrotation Xrotation Yrotation
          End Site
          {
            OFFSET 0 -0.0007 9.2781
          }
        }
      }
    }
  }
}
MOTION
Frames:	4
Frame Time:	0.0333333
-0.0702116 97.7615 1.17104 3.40975 -1.12508 6.24274 8.88178e-016 10.1816 0.1315 -0.933808 5.54956 0.0888382 -8.88178e-016 10.0835 -1.0008 -0.749 11.0993 0.153939 0 9.1 -1.3734 -0.749 11.0993 0.153939 1.11022e-016 16.6717 -2.5162 -3.43408 -10.4015 -2.14839 1.77636e-015 9.6179 1.685 2.58228 -17.5498 -3.17127 0 17.8152 2.585 -2.48481e-017 -3.97569e-016 -0 3.0676 6.4095 9.2836 -2.48481e-017 -3.97569e-016 -0 -3.0676 6.4095 9.2835 -2.48481e-017 -3.97569e-016 -0 4.5704 10.946 -2.628 -15.1746 10.8001 -3.76019 10.5924 -0.5246 -2.2321 -36.3206 -14.0377 2.88055 27.8415 -0.0001 7.10543e-015 0.095794 -0.136591 -55.2558 28.3288 -1.42109e-014 2.66454e-015 17.0472 19.4156 -18.8386 2.4661 -1.575 2.6824 -10.7336 9.93127 -12.8796 3.2298 -1.8647 1.8647 1.94708 -1.05989 0.220215 2.6526 -1.5315 1.5315 -8.22731e-005 -1.61771e-006 -7.29866e-005 9.1093 -0.5171 2.2601 -10.5768 7.44092 -8.36854 3.6764 -1.42109e-014 -3.55271e-015 -10.6361 -0.0893922 0.656543 2.8831 1.42109e-014 3.55271e-015 6.36111e-015 3.18055e-015 3.18055e-015 9.5334 0 -3.55271e-015 -4.21084 1.11175 7.22652 3.6982 0 0 -15.9671 0.0374517 -0.817697 2.9509 0 0 1.17796e-007 -4.38488e-006 5.12334e-006 9.1045 -0.0439 -1.8651 -7.9012 0.125254 11.1609 3.154 0 3.55271e-015 -23.8826 1.00048 -2.71495 2.9377 1.42109e-014 3.55271e-015 -1.59028e-015 3.18055e-015 -3.18055e-015 8.0778 -0.4887 -3.8061 -14.3877 -6.83702 27.2691 3.6 1.42109e-014 0 -28.9862 2.24739 -5.79414 2.1142 7.10543e-015 -3.55271e-015 1.98785e-015 3.18055e-015 3.97569e-016 -4.57 10.9462 -2.628 -0.357711 -3.41336 0.0236096 -10.5928 -0.5248 -2.2321 61.7677 -14.0444 1.98609 -27.8415 -1.42109e-014 7.10543e-015 -0.0656991 -0.191701 56.1285 -28.3288 1.42109e-014 0.0001 -21.3536 35.386 -0.698893 -8.0767 -0.4885 -3.806 28.3985 -15.571 -18.8449 -3.6 1.42109e-014 0.0001 12.8172 0.91301 5.05659 -2.1142 0 -3.55271e-015 6.22642e-007 1.45616e-008 -1.57385e-006 -9.1036 -0.0439 -1.8651 17.8876 -5.05994 -12.7662 -3.154 -1.42109e-014 0 16.2081 0.386678 2.20064 -2.9377 1.42109e-014 0 1.62463e-006 -1.3373e-006 -2.8869e-006 -9.5325 0 5.32907e-015 3.39486 -1.83429 -1.56355 -3.6982 0 0 21.4457 0.058453 0.844983 -2.9509 0 0 -1.75732e-006 -4.80486e-006 -0.00203092 -9.1083 -0.5168 2.2601 6.01485 11.6248 12.4366 -3.6764 -1.42109e-014 -7.10543e-015 4.07664 -0.0334941 -0.645222 -2.8831 -1.42109e-014 3.55271e-015 2.72947e-006 1.4726e-006 1.12442e-007 -2.4648 -1.5727 2.6826 9.18598 -2.91716 13.0385 -3.2298 -1.8647 1.8647 -2.12084 -1.20075 -0.265082 -2.6526 -1.5314 1.5314 -0.00123176 3.53352e-006 -0.00123758 8.2078 -6.7517 -1.5996 9.42859 -22.3175 -2.32236 7.10543e-015 -44.3705 0.2846 -1.13724 27.2612 0.327174 3.55271e-015 -44.4279 -2.9822 -12.6293 -3.85351 -3.69763 3.55271e-015 -8.7287 10.7106 0.0626085 0.0029602 -0.0262016 -8.2078 -6.7517 -1.5996 -19.4348 -15.1955 -18.6859 0 -44.3705 0.2862 1.83116 38.8883 -1.05432 3.55271e-015 -44.4277 -2.9838 9.13126 -17.7265 -5.34901 3.55271e-015 -8.7287 10.7106 0.450567 0.61166 -0.193961 
-0.32942 97.6174 1.26739 3.8897 -1.27383 6.48546 0 10.1816 0.1315 -1.0923 5.48469 0.104708 0 10.0835 -1.0008 -0.959282 10.9695 0.188691 -2.22045e-016 9.1 -1.3734 -0.959282 10.9695 0.188693 -5.55112e-017 16.6717 -2.5162 -3.45136 -10.3347 -2.18063 0 9.6179 1.685 2.91889 -17.1425 -3.47018 -1.11022e-016 17.8152 2.585 7.45443e-017 3.97569e-016 -0 3.0676 6.4095 9.2836 7.45443e-017 3.97569e-016 -0 -3.0676 6.4095 9.2835 7.45443e-017 3.97569e-016 -0 4.5704 10.946 -2.628 -15.1334 10.7889 -3.71129 10.5924 -0.5246 -2.2321 -36.0807 -13.735 2.94595 27.8415 -0.0001 -7.10543e-015 0.0952782 -0.135732 -55.4537 28.3288 1.42109e-014 5.32907e-015 16.9904 18.1994 -18.2833 2.4661 -1.575 2.6824 -10.9319 10.0362 -12.4579 3.2298 -1.8647 1.8647 1.94708 -1.05989 0.220215 2.6526 -1.5315 1.5315 -8.22731e-005 -1.61771e-006 -7.29866e-005 9.1093 -0.5171 2.2601 -10.5768 7.44092 -8.36854 3.6764 -1.42109e-014 -7.10543e-015 -10.6361 -0.0893922 0.656543 2.8831 -1.42109e-014 -3.55271e-015 1.41245e-030 -1.27222e-014 6.36111e-015 9.5334 -1.42109e-014 0 -4.21084 1.11175 7.22652 3.6982 0 -3.55271e-015 -15.9671 0.0374517 -0.817697 2.9509 1.42109e-014 0 1.17796e-007 -4.38488e-006 5.12334e-006 9.1045 -0.0439 -1.8651 -7.9012 0.125254 11.1609 3.154 1.42109e-014 -3.55271e-015 -23.8826 1.00048 -2.71495 2.9377 1.42109e-014 -3.55271e-015 -1.59028e-015 3.18055e-015 -6.36111e-015 8.0778 -0.4887 -3.8061 -14.3877 -6.83702 27.2691 3.6 0 0 -28.9862 2.24739 -5.79414 2.1142 1.42109e-014 0 -7.95139e-016 0 7.95139e-016 -4.57 10.9462 -2.628 -0.66475 -3.39172 -0.21488 -10.5928 -0.5248 -2.2321 62.2315 -13.9321 1.4493 -27.8415 1.42109e-014 3.55271e-015 -0.0652764 -0.191908 56.2047 -28.3288 1.42109e-014 0.0001 -21.0297 35.3341 -1.1214 -8.0767 -0.4885 -3.806 28.3985 -15.571 -18.8449 -3.6 -1.42109e-014 0.0001 12.8172 0.91301 5.05659 -2.1142 -1.42109e-014 3.55271e-015 6.22642e-007 1.45616e-008 -1.57385e-006 -9.1036 -0.0439 -1.8651 17.8876 -5.05994 -12.7662 -3.154 0 0 16.2081 0.386678 2.20064 -2.9377 0 0 1.62463e-006 -1.3373e-006 -2.8869e-006 -9.5325 -1.42109e-014 1.77636e-015 3.39486 -1.83429 -1.56355 -3.6982 -1.42109e-014 0 21.4457 0.058453 0.844983 -2.9509 0 0 -1.75732e-006 -4.80486e-006 -0.00203092 -9.1083 -0.5168 2.2601 6.01485 11.6248 12.4366 -3.6764 0 7.10543e-015 4.07664 -0.0334941 -0.645222 -2.8831 -1.42109e-014 -3.55271e-015 2.72947e-006 1.4726e-006 1.12442e-007 -2.4648 -1.5727 2.6826 9.18598 -2.91716 13.0385 -3.2298 -1.8647 1.8647 -2.12084 -1.20075 -0.265082 -2.6526 -1.5314 1.5314 -0.00123176 3.53352e-006 -0.00123758 8.2078 -6.7517 -1.5996 8.51297 -22.1432 -4.68996 0 -44.3705 0.2846 -1.13541 27.382 0.422879 3.55271e-015 -44.4279 -2.9822 -13.1186 -4.3958 -2.08536 0 -8.7287 10.7106 0.0643741 -0.778778 -0.0265623 -8.2078 -6.7517 -1.5996 -20.0145 -15.4228 -18.6638 0 -44.3705 0.2862 1.91916 40.0617 -1.09972 0 -44.4277 -2.9838 9.07714 -18.1116 -5.45112 0 -8.7287 10.7106 0.449935 0.497984 -0.192734 
-0.844367 97.3018 1.3415 4.48614 -1.56513 6.52916 0 10.1816 0.1315 -1.37524 5.42505 0.206363 0 10.0835 -1.0008 -1.35333 10.8491 0.401598 0 9.1 -1.3734 -1.35333 10.8491 0.401601 0 16.6717 -2.5162 -3.55635 -10.2905 -2.28758 0 9.6179 1.685 3.89473 -16.6703 -4.3208 0 17.8152 2.585 -9.93923e-017 -7.95139e-016 -3.97569e-016 3.0676 6.4095 9.2836 -9.93923e-017 -7.95139e-016 -3.97569e-016 -3.0676 6.4095 9.2835 -9.93923e-017 -7.95139e-016 -3.97569e-016 4.5704 10.946 -2.628 -15.1532 10.7618 -3.58052 10.5924 -0.5246 -2.2321 -34.9538 -13.2065 2.98567 27.8415 -0.0001 0 0.0968365 -0.135163 -56.7611 28.3288 0 7.10543e-015 15.8904 15.9506 -16.884 2.4661 -1.575 2.6824 -13.229 10.5675 -9.94634 3.2298 -1.8647 1.8647 1.94708 -1.05989 0.220215 2.6526 -1.5315 1.5315 -8.22731e-005 -1.61771e-006 -7.29866e-005 9.1093 -0.5171 2.2601 -10.5768 7.44092 -8.36854 3.6764 0 8.88178e-015 -10.6361 -0.0893922 0.656543 2.8831 0 -3.55271e-015 6.36111e-015 6.36111e-015 -0 9.5334 0 8.88178e-015 -4.21084 1.11175 7.22652 3.6982 2.84217e-014 0 -15.9671 0.0374517 -0.817697 2.9509 0 -5.32907e-015 1.17796e-007 -4.38488e-006 5.12334e-006 9.1045 -0.0439 -1.8651 -7.9012 0.125254 11.1609 3.154 -1.42109e-014 0 -23.8826 1.00048 -2.71495 2.9377 1.42109e-014 3.55271e-015 7.06225e-031 -6.36111e-015 6.36111e-015 8.0778 -0.4887 -3.8061 -14.3877 -6.83702 27.2691 3.6 0 -3.55271e-015 -28.9862 2.24739 -5.79414 2.1142 -1.42109e-014 -3.55271e-015 1.59028e-015 3.18055e-015 7.95139e-016 -4.57 10.9462 -2.628 -1.03158 -3.33494 -0.749691 -10.5928 -0.5248 -2.2321 62.8684 -13.5315 0.223701 -27.8415 0 0 -0.0652903 -0.192258 57.4138 -28.3288 0 0.0001 -20.4538 35.6903 -1.49064 -8.0767 -0.4885 -3.806 28.3985 -15.571 -18.8449 -3.6 1.42109e-014 0.0001 12.8172 0.91301 5.05659 -2.1142 1.42109e-014 -3.55271e-015 6.22642e-007 1.45616e-008 -1.57385e-006 -9.1036 -0.0439 -1.8651 17.8876 -5.05994 -12.7662 -3.154 0 3.55271e-015 16.2081 0.386678 2.20064 -2.9377 0 0 1.62463e-006 -1.3373e-006 -2.8869e-006 -9.5325 0 0 3.39486 -1.83429 -1.56355 -3.6982 1.42109e-014 -3.55271e-015 21.4457 0.058453 0.844983 -2.9509 -1.42109e-014 0 -1.75732e-006 -4.80486e-006 -0.00203092 -9.1083 -0.5168 2.2601 6.01485 11.6248 12.4366 -3.6764 0 3.55271e-015 4.07664 -0.0334941 -0.645222 -2.8831 0 0 2.72947e-006 1.4726e-006 1.12442e-007 -2.4648 -1.5727 2.6826 9.18598 -2.91716 13.0385 -3.2298 -1.8647 1.8647 -2.12084 -1.20075 -0.265082 -2.6526 -1.5314 1.5314 -0.00123176 3.53352e-006 -0.00123758 8.2078 -6.7517 -1.5996 7.4305 -21.9537 -8.06322 0 -44.3705 0.2846 -1.15625 27.9471 0.576936 -7.10543e-015 -44.4279 -2.9822 -13.9346 -5.45017 0.323155 0 -8.7287 10.7106 0.0669549 -1.92256 -0.0270391 -8.2078 -6.7517 -1.5996 -21.034 -16.6459 -18.749 0 -44.3705 0.2862 2.16109 43.1649 -1.30341 -3.55271e-015 -44.4277 -2.9838 10.2357 -17.6758 -4.40441 0 -8.7287 10.7106 0.279924 -0.625572 -0.183141 
-1.68803 96.707 1.44369 4.84148 -2.12753 6.60382 -8.88178e-016 10.1816 0.1315 -1.68197 5.37658 0.381042 4.44089e-016 10.0835 -1.0008 -1.8186 10.7493 0.754855 3.33067e-016 9.1 -1.3734 -1.8186 10.7493 0.754857 4.44089e-016 16.6717 -2.5162 -3.96043 -10.2719 -2.52629 -1.77636e-015 9.6179 1.685 5.37383 -15.9515 -6.17352 -2.22045e-016 17.8152 2.585 9.62863e-017 0 -2.98177e-016 3.0676 6.4095 9.2836 9.62863e-017 0 -2.98177e-016 -3.0676 6.4095 9.2835 9.62863e-017 0 -2.98177e-016 4.5704 10.946 -2.628 -15.389 10.7176 -3.34795 10.5924 -0.5246 -2.2321 -32.2555 -12.6888 3.40132 27.8415 -0.0001 0 0.101883 -0.136495 -60.5346 28.3288 0 -1.77636e-015 14.3689 13.9094 -15.5102 2.4661 -1.575 2.6824 -14.2939 11.0384 -7.78756 3.2298 -1.8647 1.8647 1.94708 -1.05989 0.220215 2.6526 -1.5315 1.5315 -8.22731e-005 -1.61771e-006 -7.29866e-005 9.1093 -0.5171 2.2601 -10.5768 7.44092 -8.36854 3.6764 0 0 -10.6361 -0.0893922 0.656543 2.8831 0 0 3.18055e-015 -6.36111e-015 -0 9.5334 0 1.77636e-015 -4.21084 1.11175 7.22652 3.6982 0 0 -15.9671 0.0374517 -0.817697 2.9509 0 -3.55271e-015 1.17796e-007 -4.38488e-006 5.12334e-006 9.1045 -0.0439 -1.8651 -7.9012 0.125254 11.1609 3.154 0 -1.77636e-015 -23.8826 1.00048 -2.71495 2.9377 -1.42109e-014 3.55271e-015 -3.18055e-015 3.18055e-015 -9.54166e-015 8.0778 -0.4887 -3.8061 -14.3877 -6.83702 27.2691 3.6 0 0 -28.9862 2.24739 -5.79414 2.1142 0 3.55271e-015 -7.95139e-016 -6.36111e-015 3.18055e-015 -4.57 10.9462 -2.628 -1.46359 -3.22157 -1.73042 -10.5928 -0.5248 -2.2321 63.4534 -12.9812 -2.09629 -27.8415 -1.42109e-014 0 -0.0658277 -0.193365 60.126 -28.3288 0 0.0001 -19.766 35.5746 -2.07557 -8.0767 -0.4885 -3.806 28.3985 -15.571 -18.8449 -3.6 0 0.0001 12.8172 0.91301 5.05659 -2.1142 1.42109e-014 -3.55271e-015 6.22642e-007 1.45616e-008 -1.57385e-006 -9.1036 -0.0439 -1.8651 17.8876 -5.05994 -12.7662 -3.154 0 3.55271e-015 16.2081 0.386678 2.20064 -2.9377 1.42109e-014 0 1.62463e-006 -1.3373e-006 -2.8869e-006 -9.5325 1.42109e-014 -1.77636e-015 3.39486 -1.83429 -1.56355 -3.6982 0 3.55271e-015 21.4457 0.058453 0.844983 -2.9509 0 -3.55271e-015 -1.75732e-006 -4.80486e-006 -0.00203092 -9.1083 -0.5168 2.2601 6.01485 11.6248 12.4366 -3.6764 1.42109e-014 -7.10543e-015 4.07664 -0.0334941 -0.645222 -2.8831 0 7.10543e-015 2.72947e-006 1.4726e-006 1.12442e-007 -2.4648 -1.5727 2.6826 9.18598 -2.91716 13.0385 -3.2298 -1.8647 1.8647 -2.12084 -1.20075 -0.265082 -2.6526 -1.5314 1.5314 -0.00123176 3.53352e-006 -0.00123758 8.2078 -6.7517 -1.5996 7.02672 -22.0484 -10.6358 -3.55271e-015 -44.3705 0.2846 -1.24154 29.5558 0.762047 3.55271e-015 -44.4279 -2.9822 -14.9048 -6.8689 1.74757 0 -8.7287 10.7106 0.0694335 -3.02677 -0.0274414 -8.2078 -6.7517 -1.5996 -22.3463 -18.5819 -19.1979 0 -44.3705 0.2862 2.61936 48.2167 -1.74038 3.55271e-015 -44.4277 -2.9838 13.0472 -16.1874 -2.49922 -3.55271e-015 -8.7287 10.7106 -0.989272 -3.29742 -0.222556 
